<svg width="193" height="192" viewBox="0 0 193 192" fill="none" xmlns="http://www.w3.org/2000/svg">
<rect width="192" height="192" transform="translate(0.641754)" fill="#77868B"/>
<path fill-rule="evenodd" clip-rule="evenodd" d="M47.0333 80.4386C57.0455 38.2749 90.0265 27.2306 136.223 35.1385C136.915 35.241 137.602 35.3622 138.285 35.503C105.765 16.6133 63.4289 23.5406 38.8195 53.5652C32.244 61.5856 27.5394 70.5251 24.6418 79.8541C33.4146 75.198 40.983 75.0164 47.0333 80.4386ZM80.8579 124.649C69.3491 118.333 53.9104 94.0527 68.6473 66.9649C83.682 39.3298 117.77 35.2456 128.857 36.2281C119.454 36.2281 91.4188 45.8412 85.0684 70.7544C82.3494 81.4211 82.9631 98.4035 83.9456 107.807C84.5028 113.14 83.3842 121.421 80.8579 124.649ZM113.624 66.5438C155.448 97.8421 123.168 160.298 65.0057 156.652C62.1746 156.838 59.4107 156.733 56.7152 156.335C102.911 164.243 135.543 153.332 145.811 111.398C146.473 106.586 146.727 101.405 146.574 95.8567C146.421 90.3076 145.101 84.0275 142.614 77.0188C139.829 69.1673 136.433 63.7298 133.35 61.2462C129.348 58.0222 118.82 55.7741 113.624 66.5438ZM112.922 67.6667C124.431 73.9824 139.87 98.2631 125.133 125.351C110.098 152.986 76.0103 157.07 64.9225 156.088C74.326 156.088 102.361 146.474 108.712 121.561C111.431 110.895 110.817 93.9123 109.834 84.5088C109.277 79.1754 110.396 70.8947 112.922 67.6667ZM57.5574 157.177C103.753 165.085 136.735 154.041 146.747 111.877C152.797 117.299 160.365 117.118 169.138 112.462C166.241 121.79 161.536 130.73 154.961 138.75C130.351 168.775 88.0155 175.702 55.4948 156.813C56.1782 156.953 56.8654 157.075 57.5574 157.177ZM128.774 35.6634C70.6123 32.0176 38.3315 94.4737 80.1561 125.772C74.96 136.542 64.4316 134.293 60.4296 131.069C57.3466 128.586 53.9506 123.148 51.1658 115.297C48.6792 108.288 47.3588 102.008 47.2059 96.4591C47.0531 90.9104 47.3068 85.7299 47.9685 80.918C58.2368 38.9836 90.8688 28.0725 137.065 35.9804C134.369 35.5828 131.605 35.4773 128.774 35.6634Z" fill="white"/>
</svg>
